<svg xmlns:xlink="http://www.w3.org/1999/xlink" xmlns="http://www.w3.org/2000/svg" viewBox="0 0 355.23474700108306 55.08682631536288" preserveAspectRatio="xMidYMid meet" class="css-1wu7qa0" id="aghhhcba" width="432"  height="67" ><defs id="SvgjsDefs10859"></defs><g id="SvgjsG10860" featurekey="symbolFeature-0" transform="matrix(0.6918891322765666,0,0,0.6918891322765666,-6.879453531373303,-7.082177200212497)" fill="#FFFFFF"><path xmlns="http://www.w3.org/2000/svg" display="none" fill="#FFFFFF" d="M49.752,89.854c-21.951,0-39.809-17.855-39.809-39.809  s17.858-39.809,39.809-39.809c21.95,0,39.809,17.858,39.809,39.809C89.561,71.995,71.702,89.854,49.752,89.854z M49.752,14.236  c-19.745,0-35.809,16.063-35.809,35.809s16.063,35.809,35.809,35.809S85.561,69.79,85.561,50.045S69.497,14.236,49.752,14.236z"></path><path xmlns="http://www.w3.org/2000/svg" fill="#FFFFFF" d="M49.752,10.236c-8.513,0-16.399,2.699-22.877,7.268l-1.937-1.001l-0.51,0.987l-0.51,0.987  l32.446,16.769l0.724-0.879l0.72-0.876l-26.87-13.887c5.471-3.396,11.914-5.368,18.813-5.368c19.745,0,35.809,16.064,35.809,35.809  S69.498,85.854,49.752,85.854S13.943,69.791,13.943,50.045c0-7.918,2.588-15.239,6.958-21.173l28.557,14.773l0.722-0.878L50.9,41.89  L22.297,27.099c1.132-1.352,2.357-2.623,3.674-3.795l-3.773-1.95C14.653,28.602,9.943,38.78,9.943,50.045  c0,21.953,17.858,39.809,39.809,39.809c21.95,0,39.809-17.858,39.809-39.809C89.561,28.094,71.702,10.236,49.752,10.236z"></path><polygon xmlns="http://www.w3.org/2000/svg" fill="#FFFFFF" points="24.447,41.438 43.271,51.166 43.992,50.29 24.954,40.451 23.934,42.424 42.548,52.045   43.271,51.166 "></polygon><polygon xmlns="http://www.w3.org/2000/svg" fill="#FFFFFF" points="34.795,75.965 42.906,67.854 48.471,72.663 51.018,70.117 46.585,64.741   72.256,43.63 76.38,29.488 62.238,33.612 41.127,59.282 35.751,54.852 33.205,57.396 38.015,62.962 29.903,71.073 31.304,74.564 "></polygon></g><g id="SvgjsG10861" featurekey="nameLeftFeature-0" transform="matrix(1.53804751308122,0,0,1.53804751308122,72.19198695342065,8.273164210028284)" fill="#FFFFFF"><path d="M10.146 8.467 l-5.3711 0 l0 3.2031 l4.6387 0 l0 2.5488 l-4.6387 0 l0 5.7813 l-2.9492 0 l0 -14.111 l8.3203 0 l0 2.5781 z M20.0976125 20 l-3.6719 -6.2109 l-0.84961 0 l0 6.2109 l-2.9297 0 l0 -14.111 l5.1172 0 c3.1934 0 4.541 1.8848 4.541 4.2188 c0 1.8945 -1.0742 3.125 -2.9883 3.5352 l4.248 6.3574 l-3.4668 0 z M15.5762125 8.32 l0 3.3691 l1.7285 0 c1.5625 0 2.1973 -0.66406 2.1973 -1.6797 c0 -1.0059 -0.63477 -1.6895 -2.1973 -1.6895 l-1.7285 0 z M33.89671875 8.467 l-5.2344 0 l0 3.2031 l4.6387 0 l0 2.5488 l-4.6387 0 l0 3.1934 l5.2344 0 l0 2.5879 l-8.1836 0 l0 -14.111 l8.1836 0 l0 2.5781 z M45.097890625 8.467 l-5.2344 0 l0 3.2031 l4.6387 0 l0 2.5488 l-4.6387 0 l0 3.1934 l5.2344 0 l0 2.5879 l-8.1836 0 l0 -14.111 l8.1836 0 l0 2.5781 z M56.396475 17.4902 l6.0156 0 l0 2.5098 l-9.9512 0 l0 -2.1191 l5.6152 -5.7324 c0.9082 -0.91797 1.2207 -1.7188 1.2207 -2.4316 c0 -1.1035 -0.69336 -1.7871 -1.9238 -1.7871 c-1.1621 0 -2.002 0.5957 -2.002 2.2754 l0 1.0449 l-2.8027 -0.2832 l0 -0.70313 c0 -2.9785 1.8945 -4.5898 4.7852 -4.5898 c2.7148 0 4.7168 1.4746 4.7168 4.0625 c0 1.4551 -0.625 2.5391 -1.8555 3.8184 z M76.318346875 5.888999999999999 c2.7637 0 4.4824 2.0508 4.4824 4.5605 c0 2.5684 -1.7188 4.4922 -4.4824 4.4922 l-2.9395 0 l0 5.0586 l-2.9297 0 l0 -14.111 l5.8691 0 z M75.830046875 12.4902 c1.4648 0 2.1484 -0.81055 2.1484 -2.0801 c0 -1.2207 -0.68359 -2.0703 -2.1484 -2.0703 l-2.4512 0 l0 4.1504 l2.4512 0 z M86.191446875 17.4121 l4.4238 0 l0 2.5879 l-7.3535 0 l0 -14.111 l2.9297 0 l0 11.523 z M102.295390625 20 l-1.0254 -2.9102 l-5.9277 0 l-1.0254 2.9102 l-2.998 0 l5.1953 -14.111 l3.584 0 l5.1953 14.111 l-2.998 0 z M96.201190625 14.6387 l4.209 0 l-2.0996 -5.9863 z M117.9979375 5.888999999999999 l-4.6387 7.3535 l0 6.7578 l-2.9395 0 l0 -6.6895 l-4.668 -7.4219 l3.2422 0 l2.8809 4.8047 l2.8906 -4.8047 l3.2324 0 z" fill="#FFFFFF"></path></g><g id="SvgjsG10862" featurekey="nameRightFeature-0" transform="matrix(1.5401795384547563,0,0,1.5401795384547563,264.5837839260911,7.945359115846966)" fill="#FFFFFF"><path d="M8.9551125 17.9102 l7.3926 0 l0 2.0898 l-10.234 0 l0 -1.8652 l7.2461 -9.9805 l-7.2266 0 l0 -2.0801 l10.02 0 l0 1.875 z M25.2831625 20.18555 c-4.0039 0 -7.0313 -2.7441 -7.0313 -7.1582 c0 -4.4043 3.0273 -7.1484 7.0313 -7.1484 c3.9941 0 7.0215 2.7441 7.0215 7.1484 c0 4.4141 -3.0273 7.1582 -7.0215 7.1582 z M25.2831625 18.0176 c2.6367 0 4.6973 -1.8262 4.6973 -4.9902 c0 -3.1348 -2.0605 -4.9707 -4.6973 -4.9707 s-4.6973 1.8359 -4.6973 4.9707 c0 3.1641 2.0605 4.9902 4.6973 4.9902 z M44.76584375 6.074 l2.334 0 l0 13.926 l-2.6172 0 l-6.8359 -10.625 l0 10.625 l-2.3145 0 l0 -13.926 l2.5879 0 l6.8457 10.557 l0 -10.557 z M58.857396875 8.154 l-5.4102 0 l0 3.8574 l4.7852 0 l0 2.0605 l-4.7852 0 l0 3.8379 l5.4102 0 l0 2.0898 l-7.7734 0 l0 -13.926 l7.7734 0 l0 2.0801 z" fill="#FFFFFF"></path></g></svg>