<svg xmlns:xlink="http://www.w3.org/1999/xlink" xmlns="http://www.w3.org/2000/svg" viewBox="0 0 370.05633802816897 73.94339118304491" preserveAspectRatio="xMidYMid meet" class="css-1wu7qa0" id="gchdbaef" width="432"  height="86" ><defs id="SvgjsDefs4500"></defs><g id="SvgjsG4501" featurekey="symbolFeature-0" transform="matrix(0.7394339118304492,0,0,0.7394339118304492,0.00045633904475524844,0)" fill="#FFFFFF"><g xmlns="http://www.w3.org/2000/svg" fill="#FFFFFF"><g fill="#FFFFFF"><path d="M60.649,33.521c-1.79,0-3.58,0.684-4.945,2.049c-2.732,2.731-2.732,7.159,0,9.891c1.365,1.366,3.155,2.049,4.945,2.049    c1.789,0,3.58-0.683,4.945-2.049c2.731-2.73,2.732-7.158,0-9.891C64.229,34.204,62.438,33.521,60.649,33.521z M64.181,44.046    c-0.943,0.943-2.197,1.463-3.531,1.463s-2.588-0.52-3.531-1.463s-1.463-2.197-1.463-3.531s0.52-2.588,1.463-3.531    s2.197-1.463,3.531-1.463s2.588,0.52,3.531,1.463s1.463,2.198,1.463,3.532C65.644,41.849,65.124,43.103,64.181,44.046z     M66.639,29.684c1.022,0,2.046-0.391,2.826-1.171c1.561-1.56,1.562-4.091,0-5.651c-0.78-0.78-1.804-1.171-2.825-1.171    c-1.023,0-2.047,0.391-2.826,1.171c-1.561,1.561-1.562,4.091,0,5.651C64.594,29.293,65.616,29.684,66.639,29.684z M65.228,24.275    c0.377-0.377,0.879-0.585,1.412-0.585s1.033,0.208,1.412,0.586c0.377,0.376,0.584,0.878,0.584,1.411s-0.208,1.034-0.585,1.411    c-0.378,0.377-0.879,0.585-1.412,0.585s-1.034-0.208-1.411-0.585s-0.585-0.879-0.585-1.411    C64.643,25.154,64.851,24.652,65.228,24.275z M43.931,40.433c-0.896,0-1.791,0.342-2.473,1.024c-1.367,1.366-1.367,3.579,0,4.945    c0.683,0.683,1.577,1.024,2.473,1.024c0.895,0,1.789-0.342,2.473-1.024c1.365-1.366,1.365-3.579,0-4.945    C45.72,40.774,44.826,40.433,43.931,40.433z M44.99,44.988c-0.283,0.283-0.66,0.438-1.059,0.438c-0.4,0-0.775-0.155-1.059-0.438    s-0.439-0.659-0.439-1.059s0.156-0.775,0.439-1.059c0.282-0.282,0.658-0.438,1.059-0.438c0.399,0,0.775,0.156,1.058,0.438    C45.572,43.455,45.572,44.404,44.99,44.988z M40.515,53.655c-1.789,0-3.58,0.684-4.945,2.049c-2.731,2.73-2.732,7.158,0,9.891    c1.366,1.365,3.156,2.049,4.945,2.049c1.79,0,3.58-0.684,4.945-2.049c2.731-2.731,2.732-7.159,0-9.891    C44.095,54.338,42.305,53.655,40.515,53.655z M44.046,64.181c-0.943,0.943-2.197,1.463-3.531,1.463s-2.588-0.52-3.531-1.463    s-1.463-2.198-1.463-3.532c0-1.333,0.52-2.587,1.463-3.53s2.197-1.463,3.532-1.463c1.333,0,2.587,0.52,3.53,1.463    s1.463,2.197,1.463,3.531S44.99,63.237,44.046,64.181z M46.564,31.022c-0.406,0-0.813,0.123-1.162,0.373l-2.473,1.767    c-0.479,0.342-0.783,0.876-0.831,1.463c-0.048,0.586,0.163,1.163,0.579,1.579l0.707,0.706c0.377,0.376,0.886,0.585,1.414,0.585    c0.055,0,0.109-0.002,0.165-0.007c0.585-0.049,1.12-0.353,1.462-0.831l1.766-2.473c0.568-0.795,0.479-1.885-0.213-2.576    C47.591,31.221,47.079,31.022,46.564,31.022z M44.798,35.495l-0.707-0.706l2.473-1.767L44.798,35.495z M66.64,18.793    c1.021,0,2.045-0.391,2.825-1.171c1.562-1.562,1.561-4.092,0-5.651c-0.78-0.78-1.804-1.171-2.825-1.171    c-1.023,0-2.046,0.391-2.826,1.171c-1.562,1.561-1.561,4.091,0,5.651C64.593,18.402,65.616,18.793,66.64,18.793z M65.228,13.385    c0.377-0.377,0.879-0.585,1.412-0.585c0.532,0,1.033,0.208,1.412,0.586c0.376,0.376,0.584,0.877,0.584,1.41    s-0.208,1.035-0.586,1.412c-0.377,0.377-0.877,0.585-1.41,0.585s-1.035-0.208-1.412-0.585s-0.585-0.879-0.585-1.412    S64.851,13.762,65.228,13.385z M96.78,26.499c-0.307-0.306-0.629-0.585-0.961-0.848l0.002-0.004L71.704,7.738    c-0.225-0.19-0.451-0.379-0.683-0.555c-0.325-0.247-0.661-0.476-1-0.694l-0.042-0.031V6.46c-2.674-1.716-5.736-2.577-8.801-2.577    c-1.051,0-2.103,0.103-3.139,0.305l-4.816-3.59C52.642,0.195,51.931,0,51.216,0c-0.952,0-1.91,0.346-2.576,1.011l-7.064,7.065    c-1.166,1.166-1.352,3.229-0.414,4.584l2.417,3.242L32.275,27.207l-0.001,0.706l-4.36,4.36h-0.705L15.904,43.579l-3.244-2.417    c-0.581-0.402-1.293-0.599-2.008-0.599c-0.951,0-1.91,0.347-2.576,1.013L1.011,48.64c-1.166,1.166-1.352,3.229-0.412,4.584    L4.2,58.057c-0.786,4.05-0.036,8.333,2.265,11.92l-0.006,0.003l0.116,0.157c0.196,0.298,0.392,0.598,0.608,0.885    c0.176,0.231,0.364,0.456,0.553,0.68L25.648,95.82l0.004-0.002c0.264,0.332,0.541,0.655,0.848,0.962    c2.146,2.146,4.959,3.22,7.771,3.22s5.625-1.073,7.771-3.22c2.987-2.988,3.891-7.266,2.719-11.038l0.004-0.002l-4.977-14.635    c0.248,0.018,0.494,0.028,0.742,0.028c2.679,0,5.356-1.021,7.402-3.066c3.207-3.207,3.892-7.967,2.08-11.851l6.204-6.204    c1.403,0.654,2.915,0.993,4.433,0.993c2.685,0,5.369-1.024,7.418-3.073c2.234-2.235,3.238-5.225,3.032-8.146l14.64,4.977    l0.002-0.003c1.064,0.33,2.169,0.496,3.273,0.496c2.811,0,5.621-1.071,7.766-3.216C101.073,37.749,101.073,30.792,96.78,26.499z     M42.792,11.5c-0.372-0.564-0.279-1.533,0.197-2.01l7.064-7.064C50.317,2.163,50.762,2,51.216,2c0.324,0,0.625,0.081,0.848,0.228    l3.545,2.642c-0.049,0.018-0.094,0.042-0.141,0.06c-0.394,0.146-0.78,0.313-1.164,0.49c-0.159,0.074-0.32,0.144-0.477,0.222    c-0.324,0.164-0.64,0.348-0.955,0.534c-0.186,0.11-0.376,0.212-0.559,0.33c-0.281,0.183-0.552,0.388-0.824,0.59    c-0.191,0.142-0.389,0.271-0.574,0.422c-0.286,0.232-0.556,0.491-0.831,0.745c-0.146,0.137-0.304,0.258-0.446,0.4    c-0.054,0.055-0.098,0.116-0.151,0.172c-0.378,0.388-0.734,0.789-1.065,1.204c-0.106,0.133-0.2,0.273-0.302,0.41    c-0.278,0.371-0.542,0.749-0.784,1.138c-0.082,0.13-0.157,0.263-0.234,0.396c-0.251,0.429-0.48,0.865-0.688,1.311    c-0.049,0.104-0.099,0.208-0.146,0.313c-0.24,0.541-0.452,1.091-0.63,1.65c-0.005,0.014-0.011,0.027-0.016,0.041L42.792,11.5z     M28.037,34.273h0.705l5.531-5.53l0.001-0.706l10.513-10.514l0.205,0.275c0.018,0.023,0.038,0.04,0.055,0.063    c-0.045,0.311-0.093,0.621-0.119,0.933L18.796,44.926c-0.313,0.027-0.624,0.075-0.936,0.12c-0.021-0.017-0.037-0.038-0.061-0.054    l-0.276-0.206L28.037,34.273z M5.476,54.169c-0.209,0.441-0.398,0.89-0.567,1.344c-0.012,0.032-0.028,0.063-0.04,0.095    l-2.641-3.544c-0.371-0.564-0.279-1.533,0.197-2.01L9.49,42.99c0.264-0.263,0.709-0.427,1.162-0.427    c0.324,0,0.625,0.081,0.848,0.229l3.797,2.829c-0.01,0.003-0.02,0.008-0.029,0.012c-0.564,0.179-1.119,0.394-1.664,0.635    c-0.104,0.046-0.205,0.095-0.308,0.143c-0.448,0.21-0.888,0.44-1.318,0.693c-0.13,0.075-0.26,0.149-0.388,0.229    c-0.395,0.246-0.777,0.514-1.154,0.797c-0.131,0.097-0.265,0.187-0.392,0.287c-0.44,0.353-0.868,0.729-1.279,1.133    c-0.032,0.032-0.069,0.058-0.101,0.09c-0.041,0.041-0.074,0.086-0.114,0.127c-0.352,0.358-0.684,0.729-0.995,1.109    c-0.127,0.155-0.24,0.318-0.36,0.478c-0.218,0.287-0.43,0.576-0.626,0.874c-0.112,0.171-0.217,0.347-0.323,0.521    c-0.192,0.318-0.374,0.641-0.542,0.969C5.625,53.867,5.548,54.017,5.476,54.169z M42.81,86.205l0.041,0.131    c0.994,3.203,0.143,6.663-2.223,9.03C38.929,97.064,36.671,98,34.271,98c-2.401,0-4.658-0.936-6.357-2.634    c-0.222-0.222-0.449-0.48-0.694-0.79l-0.054-0.067L13.455,76.046c0.11,0.05,0.228,0.085,0.34,0.133    c0.25,0.107,0.504,0.202,0.758,0.296c0.256,0.094,0.51,0.188,0.77,0.27c0.299,0.093,0.6,0.169,0.902,0.245    c0.223,0.056,0.441,0.117,0.667,0.163c0.408,0.084,0.819,0.145,1.233,0.197c0.125,0.016,0.249,0.041,0.376,0.055    c0.566,0.059,1.136,0.095,1.704,0.095c1.063,0,2.123-0.105,3.17-0.312c0.271-0.054,0.536-0.13,0.805-0.196    c0.235-0.06,0.473-0.107,0.707-0.177c0.385-0.114,0.76-0.255,1.135-0.397c0.115-0.044,0.232-0.077,0.346-0.123    c0.418-0.17,0.824-0.365,1.226-0.569c0.071-0.036,0.146-0.064,0.216-0.102c0.422-0.223,0.831-0.469,1.233-0.729    c0.05-0.032,0.102-0.059,0.151-0.091c0.447-0.297,0.882-0.615,1.302-0.958c0.003-0.002,0.007-0.004,0.01-0.007    c0.429-0.351,0.845-0.723,1.241-1.119c0.524-0.525,1.014-1.093,1.468-1.698c0.031-0.041,0.059-0.086,0.09-0.128    c0.401-0.545,0.776-1.116,1.115-1.718c0.962,0.689,2.009,1.203,3.124,1.534L42.81,86.205z M46.519,66.653    c-1.6,1.6-3.727,2.48-5.988,2.48c-0.877,0-1.733-0.136-2.551-0.392c-0.053-0.017-0.105-0.038-0.158-0.056    c-0.326-0.11-0.646-0.243-0.958-0.393c-0.081-0.039-0.162-0.076-0.242-0.117c-0.357-0.187-0.706-0.392-1.038-0.629l-1.814-1.301    l-1.095,1.945c-0.655,1.164-1.444,2.212-2.345,3.112c-0.248,0.248-0.51,0.474-0.772,0.7c-0.098,0.085-0.189,0.18-0.289,0.262    c-0.155,0.128-0.323,0.238-0.483,0.359c-0.226,0.169-0.447,0.345-0.68,0.499c-0.086,0.057-0.176,0.103-0.262,0.157    c-0.32,0.202-0.643,0.4-0.975,0.574c-0.01,0.006-0.02,0.01-0.029,0.015c-2.071,1.081-4.354,1.623-6.635,1.623    c-2.28,0-4.559-0.541-6.629-1.62c-0.012-0.007-0.025-0.012-0.037-0.018c-0.326-0.172-0.643-0.367-0.958-0.565    c-0.092-0.059-0.188-0.107-0.278-0.167c-0.229-0.152-0.449-0.327-0.672-0.493c-0.162-0.123-0.332-0.235-0.49-0.365    c-0.105-0.086-0.201-0.186-0.305-0.274c-0.257-0.224-0.516-0.445-0.758-0.688c-0.465-0.464-0.902-0.966-1.301-1.489    C6.426,66.712,5.541,62.891,6.04,59.24c0.03-0.223,0.067-0.444,0.108-0.666c0.034-0.184,0.07-0.367,0.111-0.55    c0.045-0.2,0.094-0.398,0.146-0.596c0.057-0.207,0.117-0.413,0.183-0.618c0.056-0.173,0.111-0.346,0.173-0.518    c0.082-0.229,0.174-0.454,0.268-0.679c0.062-0.146,0.121-0.294,0.188-0.438c0.114-0.248,0.239-0.49,0.367-0.732    c0.064-0.12,0.124-0.242,0.191-0.361c0.149-0.263,0.313-0.519,0.48-0.773c0.062-0.094,0.117-0.19,0.182-0.284    c0.199-0.288,0.415-0.567,0.637-0.843c0.045-0.055,0.084-0.112,0.129-0.167c0.275-0.33,0.566-0.651,0.875-0.961    c0.326-0.325,0.666-0.632,1.017-0.921c0.108-0.091,0.224-0.17,0.335-0.256c0.236-0.185,0.473-0.366,0.719-0.533    c0.184-0.125,0.372-0.238,0.561-0.354c0.176-0.108,0.352-0.219,0.531-0.319c0.234-0.13,0.474-0.249,0.713-0.365    c0.137-0.066,0.273-0.133,0.411-0.194c0.274-0.122,0.552-0.235,0.833-0.34c0.104-0.039,0.209-0.075,0.313-0.112    c0.31-0.106,0.62-0.205,0.935-0.29c0.072-0.019,0.145-0.035,0.215-0.054c0.348-0.087,0.695-0.167,1.046-0.229    c0.007-0.001,0.013-0.002,0.02-0.003c0.394-0.068,0.791-0.121,1.188-0.157v-0.006c0.427-0.037,0.856-0.063,1.29-0.063    c3.825,0.001,7.421,1.49,10.124,4.194c0.725,0.726,1.386,1.556,1.965,2.467l1.194,1.882l1.741-1.392    c1.494-1.192,3.373-1.849,5.293-1.849c2.266,0,4.396,0.882,5.998,2.484C49.83,57.956,49.83,63.343,46.519,66.653z M48.958,54.443    c-0.311-0.422-0.645-0.831-1.025-1.212c-2.048-2.048-4.73-3.07-7.412-3.07c-2.316,0-4.633,0.762-6.541,2.286    c-0.631-0.994-1.369-1.938-2.236-2.808c-2.826-2.826-6.43-4.392-10.12-4.713l23.304-23.305c0.32,3.691,1.888,7.295,4.713,10.121    c0.868,0.867,1.813,1.605,2.806,2.237c-3.289,4.118-3.031,10.136,0.785,13.952c0.381,0.381,0.791,0.715,1.212,1.025L48.958,54.443    z M66.653,46.519c-1.604,1.604-3.736,2.487-6.004,2.487s-4.4-0.884-6.004-2.487c-3.059-3.06-3.332-7.913-0.637-11.29l1.391-1.74    l-1.879-1.195c-0.914-0.581-1.744-1.242-2.466-1.964c-3.125-3.126-4.499-7.348-4.125-11.439c0.015-0.164,0.044-0.326,0.064-0.49    c0.034-0.267,0.066-0.534,0.115-0.799c0.033-0.183,0.079-0.363,0.12-0.546c0.055-0.245,0.109-0.49,0.178-0.732    c0.051-0.181,0.109-0.359,0.167-0.538c0.079-0.242,0.161-0.484,0.253-0.724c0.064-0.17,0.135-0.34,0.207-0.508    c0.105-0.246,0.218-0.488,0.338-0.729c0.076-0.156,0.154-0.312,0.237-0.464c0.139-0.255,0.288-0.504,0.443-0.751    c0.083-0.132,0.161-0.266,0.249-0.396c0.189-0.282,0.395-0.556,0.607-0.826c0.068-0.088,0.131-0.18,0.201-0.267    c0.295-0.358,0.608-0.708,0.943-1.043c0.32-0.319,0.654-0.619,0.998-0.905c0.109-0.091,0.225-0.173,0.337-0.26    c0.224-0.175,0.448-0.345,0.681-0.505c0.187-0.128,0.377-0.248,0.568-0.365c0.152-0.096,0.307-0.189,0.463-0.278    c0.25-0.142,0.502-0.276,0.758-0.401c0.084-0.041,0.169-0.08,0.253-0.12c1.378-0.639,2.836-1.053,4.318-1.234    c-0.001-0.002-0.001-0.005-0.002-0.007c0.577-0.07,1.16-0.118,1.751-0.118c2.898,0,5.652,0.855,8.02,2.466l-0.001,0.003    c0.128,0.087,0.256,0.176,0.384,0.263c0.077,0.057,0.157,0.105,0.233,0.163c0.521,0.394,1.021,0.831,1.49,1.301    c5.583,5.582,5.583,14.666,0,20.25c-0.901,0.901-1.948,1.69-3.112,2.345l-1.947,1.094l1.303,1.815    c0.021,0.03,0.039,0.063,0.061,0.094c0.147,0.211,0.285,0.427,0.41,0.646c0.053,0.093,0.101,0.188,0.149,0.281    c0.09,0.171,0.175,0.343,0.251,0.517c0.043,0.097,0.084,0.194,0.123,0.292c0.076,0.193,0.145,0.389,0.207,0.585    c0.023,0.076,0.051,0.152,0.073,0.229c0.077,0.275,0.144,0.553,0.192,0.832C69.483,41.707,68.672,44.499,66.653,46.519z     M95.366,40.627c-1.697,1.695-3.952,2.63-6.352,2.63c-0.911,0-1.813-0.137-2.68-0.406l-0.09-0.027L70.71,37.542    c-0.332-1.115-0.846-2.163-1.535-3.124c0.303-0.171,0.598-0.352,0.887-0.538c0.016-0.011,0.033-0.02,0.05-0.03    c0.213-0.139,0.417-0.287,0.621-0.434c0.099-0.07,0.2-0.136,0.298-0.209c0.234-0.177,0.461-0.363,0.684-0.551    c0.06-0.05,0.121-0.095,0.181-0.146c0.285-0.247,0.562-0.502,0.825-0.767c0.395-0.395,0.764-0.806,1.112-1.232    c0.054-0.065,0.097-0.136,0.149-0.201c0.286-0.361,0.563-0.729,0.815-1.109c0.066-0.101,0.12-0.206,0.185-0.308    c0.223-0.353,0.441-0.708,0.636-1.075c0.065-0.126,0.118-0.256,0.181-0.383c0.172-0.349,0.344-0.697,0.49-1.057    c0.073-0.18,0.129-0.364,0.195-0.545c0.113-0.311,0.232-0.618,0.326-0.936c0.098-0.323,0.168-0.651,0.244-0.979    c0.042-0.178,0.096-0.352,0.131-0.531c0.319-1.615,0.39-3.268,0.219-4.899c-0.012-0.102-0.031-0.2-0.044-0.301    c-0.054-0.438-0.12-0.874-0.21-1.308c-0.043-0.212-0.102-0.42-0.153-0.63c-0.078-0.313-0.157-0.627-0.255-0.937    c-0.078-0.253-0.17-0.5-0.262-0.748c-0.096-0.262-0.193-0.521-0.304-0.779c-0.047-0.109-0.081-0.225-0.13-0.333l18.445,13.698    l0.087,0.068c0.304,0.24,0.562,0.467,0.788,0.693C97.064,29.611,98,31.869,98,34.271C98,36.671,97.064,38.929,95.366,40.627z     M18.518,61.925l-3.526-0.006c0,0-0.001,0-0.002,0c-0.265,0-0.52,0.105-0.707,0.293l-2.461,2.461    c-0.59,0.593-0.588,1.556,0.002,2.146l2.799,2.799c0.287,0.286,0.668,0.444,1.074,0.444s0.787-0.158,1.074-0.444l2.459-2.459    c0.188-0.188,0.293-0.443,0.293-0.709l-0.006-3.527C19.515,62.372,19.07,61.926,18.518,61.925z M15.697,67.863l-2.119-2.118    l1.826-1.825l2.114,0.003l0.004,2.116L15.697,67.863z M26.183,62.213c-0.188-0.188-0.457-0.309-0.708-0.293l-3.526,0.005    c-0.551,0.001-0.998,0.447-0.998,0.998l-0.006,3.527c-0.001,0.266,0.104,0.521,0.293,0.709l2.457,2.458    c0.287,0.287,0.669,0.445,1.076,0.445s0.789-0.158,1.074-0.444l2.797-2.797c0.287-0.286,0.444-0.668,0.445-1.074    c0-0.407-0.158-0.789-0.444-1.075L26.183,62.213z M24.771,67.864l-1.826-1.825l0.004-2.115l2.114-0.003l1.825,1.825L24.771,67.864    z M55.747,18.793c1.023,0,2.047-0.391,2.826-1.171c1.561-1.561,1.563-4.091,0-5.651c-0.78-0.78-1.803-1.171-2.825-1.171    s-2.046,0.391-2.826,1.171c-1.562,1.56-1.562,4.09,0,5.651C53.702,18.402,54.726,18.793,55.747,18.793z M54.336,13.385    c0.378-0.377,0.879-0.585,1.412-0.585s1.034,0.208,1.412,0.586c0.377,0.376,0.585,0.877,0.585,1.41s-0.209,1.035-0.586,1.412    s-0.879,0.585-1.412,0.585c-0.532,0-1.033-0.208-1.41-0.585c-0.378-0.377-0.586-0.879-0.586-1.412S53.958,13.762,54.336,13.385z     M36.615,42.264c-0.39-0.39-0.901-0.585-1.413-0.585s-1.023,0.195-1.414,0.586l-2.12,2.119c-0.375,0.375-0.586,0.884-0.586,1.414    s0.211,1.039,0.586,1.414l0.707,0.706c0.39,0.391,0.902,0.586,1.414,0.586s1.023-0.195,1.414-0.585l2.119-2.119    c0.375-0.376,0.586-0.885,0.586-1.415s-0.211-1.04-0.586-1.415L36.615,42.264z M33.789,46.504l-0.707-0.706l2.12-2.119    l0.706,0.706L33.789,46.504z M58.573,28.513c1.563-1.561,1.561-4.091,0-5.651c-0.779-0.78-1.803-1.171-2.826-1.171    c-1.021,0-2.045,0.391-2.825,1.171c-1.562,1.561-1.562,4.092,0,5.651c0.78,0.78,1.804,1.171,2.826,1.171    S57.793,29.293,58.573,28.513z M53.751,25.688c0-0.533,0.208-1.035,0.585-1.412c0.378-0.377,0.879-0.585,1.412-0.585    s1.034,0.208,1.411,0.585s0.586,0.879,0.586,1.412c0,0.532-0.208,1.034-0.586,1.411c-0.377,0.377-0.879,0.585-1.411,0.585    c-0.533,0-1.034-0.208-1.413-0.586C53.958,26.722,53.751,26.221,53.751,25.688z M16.773,52.802    c-0.572-0.575-1.576-0.576-2.15-0.002l-2.799,2.798c-0.592,0.592-0.592,1.556,0,2.148l2.459,2.459    c0.188,0.188,0.442,0.293,0.707,0.293c0.001,0,0.002,0,0.002,0l3.526-0.006c0.552-0.001,0.997-0.447,0.999-0.998l0.006-3.526    c0-0.266-0.105-0.521-0.293-0.709L16.773,52.802z M17.518,58.494l-2.114,0.003l-1.826-1.825l2.119-2.118l1.825,1.825    L17.518,58.494z M21.949,60.492l3.526,0.006c0.001,0,0.001,0,0.001,0c0.266,0,0.52-0.105,0.707-0.293l2.461-2.46    c0.59-0.592,0.59-1.556-0.002-2.147l-2.799-2.799c-0.572-0.572-1.577-0.57-2.146,0.001l-2.459,2.459    c-0.188,0.188-0.294,0.442-0.293,0.709l0.005,3.526C20.951,60.045,21.397,60.491,21.949,60.492z M24.771,54.554l2.117,2.118    l-1.825,1.825l-2.114-0.003l-0.004-2.114L24.771,54.554z" fill="#FFFFFF"></path></g></g></g><g id="SvgjsG4502" featurekey="nameFeature-0" transform="matrix(0.7387585550470179,0,0,0.7387585550470179,92.07922747506373,0.3860760654124409)" fill="#FFFFFF"><path d="M29.24 23.88 c0.36 0 0.6 0.24 0.6 0.6 l0 2.86 c0 7.16 -4.62 13.18 -12.58 13.18 c-8.02 0 -14.66 -6.44 -14.66 -14.46 c0 -8.04 6.5 -14.38 14.52 -14.38 c3.9 0 7.48 1.6 9.92 4.14 c0.28 0.3 0.22 0.56 -0.02 0.84 l-3.24 3.5 c-0.22 0.28 -0.56 0.28 -0.84 0.04 c-1.54 -1.32 -3.48 -2.18 -5.88 -2.18 c-4.36 0 -7.78 3.48 -7.78 8.04 s3.22 8.12 7.92 8.12 c4.1 0 6.14 -2.38 6.26 -4.94 l-6.08 0 c-0.36 0 -0.6 -0.24 -0.6 -0.6 l0 -4.16 c0 -0.36 0.24 -0.6 0.6 -0.6 l11.86 0 z M60.772 39.32 c0.14 0.4 -0.04 0.68 -0.48 0.68 l-5.48 0 c-0.32 0 -0.56 -0.12 -0.68 -0.48 l-1.28 -3.88 l-10.02 0 l-1.28 3.88 c-0.1 0.36 -0.36 0.48 -0.68 0.48 l-5.48 0 c-0.44 0 -0.62 -0.28 -0.48 -0.68 l9.8 -26.84 c0.12 -0.32 0.36 -0.48 0.68 -0.48 l4.8 0 c0.32 0 0.66 0.16 0.78 0.48 z M44.652 30.18 l6.4 0 l-3.2 -9.68 z M95.72399999999999 12 c0.36 0 0.6 0.24 0.6 0.6 l0 26.8 c0 0.36 -0.24 0.6 -0.6 0.6 l-5.26 0 c-0.36 0 -0.6 -0.24 -0.6 -0.6 l0 -13.28 l-5.28 13.38 c-0.12 0.32 -0.4 0.5 -0.72 0.5 l-4.72 0 c-0.32 0 -0.62 -0.18 -0.74 -0.5 l-5.3 -13.44 l0 13.34 c0 0.36 -0.24 0.6 -0.6 0.6 l-5.26 0 c-0.36 0 -0.6 -0.24 -0.6 -0.6 l0 -26.8 c0 -0.36 0.24 -0.6 0.6 -0.6 l5.9 0 c0.32 0 0.6 0.12 0.72 0.4 l7.64 20.12 l7.62 -20.12 c0.12 -0.28 0.4 -0.4 0.72 -0.4 l5.88 0 z M122.17599999999999 34.32 c0.36 0 0.6 0.24 0.6 0.6 l0 4.48 c0 0.36 -0.24 0.6 -0.6 0.6 l-17.54 0 c-0.36 0 -0.6 -0.24 -0.6 -0.6 l0 -26.8 c0 -0.36 0.24 -0.6 0.6 -0.6 l17.5 0 c0.36 0 0.6 0.24 0.6 0.6 l0 4.48 c0 0.36 -0.24 0.6 -0.6 0.6 l-11.64 0 l0 5.38 l10.66 0 c0.36 0 0.6 0.24 0.6 0.6 l0 4.48 c0 0.36 -0.24 0.6 -0.6 0.6 l-10.66 0 l0 5.58 l11.68 0 z M138.768 23.06 c5.26 0.98 10.8 2.82 10.8 8.96 c0 5.98 -3.6 8.58 -10.66 8.58 c-6.58 0 -9.82 -2.24 -10.32 -7.84 c-0.04 -0.4 0.2 -0.66 0.56 -0.66 l4.82 0 c0.36 0 0.5 0.22 0.6 0.54 c0.52 1.44 1.8 2.14 4.34 2.14 c2.68 0 4.34 -0.76 4.34 -2.54 c0 -1.86 -0.6 -2.86 -4.48 -3.62 c-4.96 -0.98 -9.76 -3.04 -9.76 -8.68 c0 -5.16 3.14 -8.28 9.76 -8.28 c5.9 0 9.42 2.18 9.96 7.58 c0.04 0.4 -0.2 0.72 -0.56 0.72 l-4.46 0 c-0.36 0 -0.5 -0.28 -0.6 -0.6 c-0.38 -1.16 -1.64 -1.94 -4.24 -1.94 c-2.38 0 -3.58 1.04 -3.58 2.52 c0 1.2 -0.08 2.44 3.48 3.12 z M190.79199999999997 12 c0.36 0 0.6 0.24 0.6 0.6 l0 4.48 c0 0.36 -0.24 0.6 -0.6 0.6 l-11.74 0 l0 5.62 l10.82 0 c0.36 0 0.6 0.24 0.6 0.6 l0 4.5 c0 0.36 -0.24 0.6 -0.6 0.6 l-10.82 0 l0 10.4 c0 0.36 -0.24 0.6 -0.6 0.6 l-5.26 0 c-0.36 0 -0.6 -0.24 -0.6 -0.6 l0 -26.8 c0 -0.36 0.24 -0.6 0.6 -0.6 l17.6 0 z M211.82399999999998 40.52 c-7.92 0 -14.42 -6.4 -14.42 -14.4 c0 -8.04 6.5 -14.44 14.42 -14.44 c7.94 0 14.46 6.4 14.46 14.44 c0 8 -6.52 14.4 -14.46 14.4 z M211.82399999999998 34.26 c4.46 0 7.96 -3.58 7.96 -8.14 c0 -4.6 -3.5 -8.18 -7.96 -8.18 c-4.42 0 -7.92 3.58 -7.92 8.18 c0 4.56 3.5 8.14 7.92 8.14 z M249.97599999999997 30.060000000000002 l4.88 9.24 c0.22 0.42 -0.02 0.7 -0.48 0.7 l-5.16 0 c-0.34 0 -0.54 -0.14 -0.7 -0.46 l-4.38 -8.64 l-0.48 0 l-4 0 l0 8.5 c0 0.36 -0.24 0.6 -0.6 0.6 l-5.26 0 c-0.36 0 -0.6 -0.24 -0.6 -0.6 l0 -26.8 c0 -0.36 0.24 -0.6 0.6 -0.6 l9.86 0 c8.82 0 11.46 3.14 11.46 9.44 c0 4.44 -1.3 7.3 -5.14 8.62 z M239.65599999999995 17.68 l0 7.54 l4.46 0 c3.18 0 4.82 -0.68 4.82 -3.78 c0 -3.06 -1.64 -3.76 -4.82 -3.76 l-4.46 0 z M296.14 12 c0.36 0 0.6 0.24 0.6 0.6 l0 4.48 c0 0.36 -0.24 0.6 -0.6 0.6 l-11.74 0 l0 5.62 l10.82 0 c0.36 0 0.6 0.24 0.6 0.6 l0 4.5 c0 0.36 -0.24 0.6 -0.6 0.6 l-10.82 0 l0 10.4 c0 0.36 -0.24 0.6 -0.6 0.6 l-5.26 0 c-0.36 0 -0.6 -0.24 -0.6 -0.6 l0 -26.8 c0 -0.36 0.24 -0.6 0.6 -0.6 l17.6 0 z M320.332 30.060000000000002 l4.88 9.24 c0.22 0.42 -0.02 0.7 -0.48 0.7 l-5.16 0 c-0.34 0 -0.54 -0.14 -0.7 -0.46 l-4.38 -8.64 l-0.48 0 l-4 0 l0 8.5 c0 0.36 -0.24 0.6 -0.6 0.6 l-5.26 0 c-0.36 0 -0.6 -0.24 -0.6 -0.6 l0 -26.8 c0 -0.36 0.24 -0.6 0.6 -0.6 l9.86 0 c8.82 0 11.46 3.14 11.46 9.44 c0 4.44 -1.3 7.3 -5.14 8.62 z M310.012 17.68 l0 7.54 l4.46 0 c3.18 0 4.82 -0.68 4.82 -3.78 c0 -3.06 -1.64 -3.76 -4.82 -3.76 l-4.46 0 z M349.92400000000004 34.32 c0.36 0 0.6 0.24 0.6 0.6 l0 4.48 c0 0.36 -0.24 0.6 -0.6 0.6 l-17.54 0 c-0.36 0 -0.6 -0.24 -0.6 -0.6 l0 -26.8 c0 -0.36 0.24 -0.6 0.6 -0.6 l17.5 0 c0.36 0 0.6 0.24 0.6 0.6 l0 4.48 c0 0.36 -0.24 0.6 -0.6 0.6 l-11.64 0 l0 5.38 l10.66 0 c0.36 0 0.6 0.24 0.6 0.6 l0 4.48 c0 0.36 -0.24 0.6 -0.6 0.6 l-10.66 0 l0 5.58 l11.68 0 z M375.67600000000004 34.32 c0.36 0 0.6 0.24 0.6 0.6 l0 4.48 c0 0.36 -0.24 0.6 -0.6 0.6 l-17.54 0 c-0.36 0 -0.6 -0.24 -0.6 -0.6 l0 -26.8 c0 -0.36 0.24 -0.6 0.6 -0.6 l17.5 0 c0.36 0 0.6 0.24 0.6 0.6 l0 4.48 c0 0.36 -0.24 0.6 -0.6 0.6 l-11.64 0 l0 5.38 l10.66 0 c0.36 0 0.6 0.24 0.6 0.6 l0 4.48 c0 0.36 -0.24 0.6 -0.6 0.6 l-10.66 0 l0 5.58 l11.68 0 z" fill="#FFFFFF"></path></g><g id="SvgjsG4503" featurekey="sloganFeature-0" transform="matrix(0.9381268709239641,0,0,0.9381268709239641,93.99999955266625,45.44070238738858)" fill="#FFFFFF"><path d="M7.28 6.5 l-5.78 0 l0 5.5 l5.68 0 l0 1.44 l-5.68 0 l0 6.56 l-1.5 0 l0 -15 l7.28 0 l0 1.5 z M18.462000000000003 20 l-1.72 -0.000019531 l-3.14 -6.06 l-2.6 0 l0 6.06 l-1.34 0 l0 -15 l3.44 0 c1.3733 0 2.46 0.39334 3.26 1.18 s1.2 1.8667 1.2 3.24 c0 0.42666 -0.05666 0.86 -0.17 1.3 s-0.27668 0.85334 -0.49002 1.24 s-0.47668 0.73666 -0.79002 1.05 s-0.67 0.55668 -1.07 0.73002 z M16.142000000000003 9.32 c0 -0.46666 -0.08 -0.88664 -0.24 -1.26 s-0.38 -0.69 -0.66 -0.95 s-0.61334 -0.46 -1 -0.6 s-0.80666 -0.21 -1.26 -0.21 l-1.98 0 l0 6.26 l2.1 0 c1.0667 0 1.84 -0.28666 2.32 -0.86 s0.72 -1.3667 0.72 -2.38 z M28.264000000000003 20 l-7.5 0 l0 -15 l7.36 0 l0 1.52 l-5.98 0 l0 5.16 l5.94 0 l0 1.3 l-5.94 0 l0 5.5 l6.12 0 l0 1.52 z M38.386 20 l-7.5 0 l0 -15 l7.36 0 l0 1.52 l-5.98 0 l0 5.16 l5.94 0 l0 1.3 l-5.94 0 l0 5.5 l6.12 0 l0 1.52 z M52.77 6.5 l-5.78 0 l0 5.5 l5.68 0 l0 1.44 l-5.68 0 l0 6.56 l-1.5 0 l0 -15 l7.28 0 l0 1.5 z M62.852000000000004 16.12 c0 1.3333 -0.32336 2.3434 -0.97002 3.03 s-1.6433 1.03 -2.99 1.03 c-1.28 0 -2.2434 -0.36666 -2.89 -1.1 s-0.97 -1.72 -0.97 -2.96 l0 -11.12 l1.42 0 l0 11.06 c0 0.37334 0.05 0.72334 0.15 1.05 s0.25 0.61332 0.45 0.85998 s0.45 0.44 0.75 0.58 s0.65 0.21 1.05 0.21 c0.97334 0 1.65 -0.27 2.03 -0.81 s0.57 -1.2633 0.57 -2.17 l0 -10.78 l1.4 0 l0 11.12 z M73.934 20 l-1.56 0 l-5.2 -11.8 l0 11.8 l-1.44 0 l0 -15 l1.44 0 l5.22 11.3 l0.12 -11.3 l1.42 0 l0 15 z M78.59599999999999 20 l-1.58 1.24 l0 -2.78 l1.58 0 l0 1.54 z M94.83999999999999 20 l-1.4 0 l-1.06 -4.3 l-4.36 0 l-1.06 4.3 l-1.36 0 l4.06 -15 l1.14 0 z M92.03999999999999 14.36 l-1.78 -7.42 l-1.9 7.42 l3.68 0 z M103.142 20 l-6.18 0 l0 -15 l1.4 0 l0 13.56 l4.78 0 l0 1.44 z M118.224 5 l-3.44 15 l-1.28 0 l-2.5 -12.24 l-2.48 12.24 l-1.26 0 l-3.44 -15 l1.44 0 l2.52 12 l2.76 -11.96 l-0.02 -0.04 l0.02 0 l0.96 0 l0.11 0.49 c0.07334 0.32666 0.17 0.75332 0.29 1.28 s0.25666 1.1333 0.41 1.82 s0.31334 1.39 0.48 2.11 s0.33 1.4333 0.49 2.14 s0.30666 1.35 0.44 1.93 s0.24668 1.07 0.34002 1.47 s0.15334 0.65334 0.18 0.76 l2.52 -12 l1.46 0 z M127.82599999999998 20 l-1.4 0 l-1.06 -4.3 l-4.36 0 l-1.06 4.3 l-1.36 0 l4.06 -15 l1.14 0 z M125.02599999999998 14.36 l-1.78 -7.42 l-1.9 7.42 l3.68 0 z M136.588 5 l-3.54 8.16 l0 6.84 l-1.44 0 l0 -6.84 l-3.54 -8.16 l1.6 0 l2.64 6.44 l2.68 -6.44 l1.6 0 z M145.96999999999997 16.12 c0 1.2267 -0.3199 2.21 -0.9599 2.95 s-1.5933 1.11 -2.86 1.11 c-0.74666 0 -1.3767 -0.10666 -1.89 -0.32 s-0.93 -0.52 -1.25 -0.92 s-0.55 -0.88 -0.69 -1.44 s-0.20334 -1.1867 -0.19 -1.88 l0.02 -0.52 l1.54 0 c0 0.42666 0.01334 0.86332 0.04 1.31 s0.11332 0.85332 0.25998 1.22 s0.37332 0.66666 0.67998 0.9 s0.74666 0.35 1.32 0.35 c0.88 0 1.5267 -0.23334 1.94 -0.7 s0.62 -1.12 0.62 -1.96 c0 -0.66666 -0.16 -1.1933 -0.48 -1.58 s-0.72 -0.71332 -1.2 -0.97998 s-0.99666 -0.50666 -1.55 -0.72 s-1.07 -0.48 -1.55 -0.8 s-0.88 -0.73 -1.2 -1.23 s-0.48 -1.1633 -0.48 -1.99 c0 -1.3333 0.34334 -2.3434 1.03 -3.03 s1.6967 -1.03 3.03 -1.03 c0.62666 0 1.17 0.1 1.63 0.3 s0.84334 0.48 1.15 0.84 s0.53332 0.78666 0.67998 1.28 s0.22 1.04 0.22 1.64 l0 1.26 l-1.46 0 c0 -0.44 -0.0033398 -0.89666 -0.01 -1.37 s-0.07666 -0.90668 -0.21 -1.3 s-0.35668 -0.71668 -0.67002 -0.97002 s-0.77 -0.38 -1.37 -0.38 c-0.86666 0 -1.52 0.22 -1.96 0.66 s-0.64666 1.0867 -0.62 1.94 l0 0.2 c0.01334 0.41334 0.08334 0.75668 0.21 1.03 s0.3 0.50668 0.52 0.70002 s0.47666 0.36334 0.77 0.51 s0.61334 0.3 0.96 0.46 c0.50666 0.22666 1 0.46666 1.48 0.72 s0.90334 0.55 1.27 0.89 s0.66332 0.74 0.88998 1.2 s0.34 1.01 0.34 1.65 z M161.03399999999996 16.12 c0 1.4133 -0.31666 2.4434 -0.95 3.09 s-1.6633 0.97 -3.09 0.97 c-1.3067 0 -2.2634 -0.36 -2.87 -1.08 s-0.91 -1.7133 -0.91 -2.98 l0 -7.2 c0 -1.3733 0.32334 -2.3934 0.97 -3.06 s1.6633 -1 3.05 -1 c1.32 0 2.2834 0.35 2.89 1.05 s0.91 1.69 0.91 2.97 l0 7.24 z M159.63399999999996 16.08 l-0.000019531 -7.22 c0 -0.76 -0.2 -1.3933 -0.6 -1.9 s-1.0067 -0.76 -1.82 -0.76 c-0.97334 0 -1.65 0.25334 -2.03 0.76 s-0.57 1.22 -0.57 2.14 l0 6.9 c0 0.38666 0.04334 0.75 0.13 1.09 s0.22666 0.63666 0.42 0.89 s0.44 0.45334 0.74 0.6 s0.66334 0.22 1.09 0.22 c0.93334 0 1.6067 -0.22666 2.02 -0.68 s0.62 -1.1333 0.62 -2.04 z M172.01599999999996 20 l-1.56 0 l-5.2 -11.8 l0 11.8 l-1.44 0 l0 -15 l1.44 0 l5.22 11.3 l0.12 -11.3 l1.42 0 l0 15 z M176.558 5 l-0.1 11.74 l-1.26 0 l-0.1 -11.74 l1.46 0 z M176.558 20 l-1.46 0 l0 -1.54 l1.46 0 l0 1.54 z" fill="#FFFFFF"></path></g></svg>